<svg xmlns="http://www.w3.org/2000/svg" version="1.1" xmlns:xlink="http://www.w3.org/1999/xlink" xmlns:svgjs="http://svgjs.com/svgjs" width="132.9" height="132.9"><svg version="1.1" id="SvgjsSvg1002" xmlns="http://www.w3.org/2000/svg" xmlns:xlink="http://www.w3.org/1999/xlink" x="0px" y="0px" viewBox="0 0 132.9 132.9" style="enable-background:new 0 0 132.9 132.9;" xml:space="preserve">
<style type="text/css">
	.st0{fill:#FFFFFF;}
</style>
<g id="SvgjsG1001">
	<path d="M70.2,15c-24.2,0-43.8,22-43.8,49.2s19.6,49.2,43.8,49.2s43.8-22,43.8-49.2S94.4,15,70.2,15z M70.2,108
		c-15.1,0-27.3-19.6-27.3-43.8s12.2-43.8,27.3-43.8s27.3,19.6,27.3,43.8S85.3,108,70.2,108z"></path>
	<path d="M73.9,28.6C73.9,28.6,73.9,28.6,73.9,28.6c0.1,0.1,0,0.1,0,0.1C60,29.8,46.7,43.2,45.6,57c0,0,0,0.1-0.1,0.1
		c0,0-0.1,0-0.1-0.1c-1.1-13.8-14.4-27.1-28.2-28.2c0,0-0.1,0-0.1-0.1c0,0,0-0.1,0.1-0.1c13.8-1.1,27.1-14.4,28.2-28.2
		c0,0,0-0.1,0.1-0.1c0,0,0.1,0,0.1,0.1c0,0,0,0,0,0C46.8,14.2,60.1,27.5,73.9,28.6z"></path>
	<path class="st0" d="M64.2,28.7c-9.1,0.8-17.7,9.5-18.6,18.6c0,0,0,0.1-0.1,0.1c0,0-0.1,0-0.1-0.1C44.7,38.3,36,29.6,27,28.7
		c0,0-0.1,0-0.1-0.1c0,0,0-0.1,0.1-0.1C36,27.8,44.7,19.1,45.5,10c0,0,0-0.1,0.1-0.1c0,0,0.1,0,0.1,0.1c0.8,9.1,9.5,17.7,18.6,18.6
		C64.3,28.6,64.3,28.6,64.2,28.7C64.3,28.7,64.3,28.7,64.2,28.7z"></path>
	<g id="SvgjsG1000">
		<path d="M60.5,61c-0.8,0.4-1.4,1.2-1.6,2.1c0.6-1.7,1.8-1.8,1.8-1.8"></path>
		<path d="M60.4,60.5c-0.7,0.3-1.2,0.8-1.6,1.4c-0.2,0.3-0.3,0.7-0.4,1c-0.1,0.3,0.1,0.6,0.4,0.7c0.3,0.1,0.6-0.1,0.7-0.4v-0.1l0,0
			c0,0,0,0.1,0,0l0.1-0.2c0.1-0.1,0.1-0.2,0.2-0.3v-0.1l0,0c0,0,0,0.1,0,0c0,0,0.1-0.1,0.1-0.1l0.2-0.2l0,0c0,0,0.1-0.1,0,0
			c-0.1,0.1,0,0,0,0l0,0l0.2-0.1h0.1l0,0c0.1,0-0.2,0,0,0l0.1-0.1c0.1,0,0.3,0,0,0c0.1,0,0.3-0.1,0.4-0.2c0.1-0.1,0.2-0.2,0.2-0.4
			c0-0.1-0.1-0.3-0.2-0.4c-0.1-0.1-0.2-0.2-0.4-0.2c-0.7,0.1-1.4,0.6-1.8,1.2c-0.2,0.3-0.4,0.7-0.5,1l1.1,0.3c0-0.1,0.1-0.3,0.1-0.4
			v-0.1c-0.1,0.2,0,0,0,0l0.1-0.2c0.1-0.1,0.1-0.2,0.2-0.3v-0.1c0-0.1-0.1,0.1,0,0l0.1-0.1c0.1-0.1,0.1-0.1,0.2-0.2l0.1-0.1l0,0l0,0
			l0,0c0.1-0.1,0.2-0.1,0.3-0.2h0.1h-0.1c0.1,0,0.3-0.1,0.3-0.3c0.1-0.1,0.1-0.3,0-0.4c-0.1-0.3-0.4-0.5-0.7-0.4L60.4,60.5z"></path>
		<path d="M60.3,59.5c0,0-2.1-0.8-4.9,1.7c3.8-2.9,5.3-1.1,5.3-1.1"></path>
		<path d="M60.5,59c-0.5-0.2-1.1-0.2-1.7-0.1c-1.4,0.3-2.7,0.9-3.7,1.9c-0.4,0.4,0.2,1.2,0.7,0.9c0.6-0.5,1.2-0.9,1.9-1.2
			c0.2-0.1,0.4-0.2,0.7-0.3l0.4-0.1h0.1h0.1c0.2,0,0.4,0,0.5,0h0.1h0.2h0.2H60c0,0-0.1,0,0,0l0.2,0.1c0.1,0.1,0,0,0,0h0.1
			c0,0,0,0,0.1,0.1c0.2,0.2,0.6,0.2,0.8,0c0.2-0.2,0.2-0.6,0-0.8c-0.3-0.3-0.6-0.5-1-0.6c-0.9-0.2-1.8-0.1-2.6,0.2
			c-0.8,0.3-1.6,0.8-2.3,1.3l0.7,0.9c0.6-0.5,1.2-0.9,1.8-1.2c0.2-0.1,0.5-0.2,0.7-0.3l0.4-0.1H59c0,0,0.2,0,0,0c0.2,0,0.4,0,0.6,0
			h0.3c0,0-0.1,0,0,0c0.1,0,0.2,0,0.3,0.1c0.3,0.1,0.6-0.1,0.7-0.4s-0.1-0.6-0.4-0.7L60.5,59z"></path>
		<path d="M61,57.9c-1.6,0.1-3.2-0.7-4.1-2c0.8,1.5,2.3,2.4,4,2.4"></path>
		<path d="M61,57.3h-0.6h-0.1c-0.1,0,0.1,0,0,0c-0.2,0-0.4-0.1-0.6-0.1L59,57c0.1,0,0,0-0.1,0l-0.2-0.1l-0.3-0.2l-0.3-0.2
			c0.1,0-0.1-0.1-0.1-0.1c0,0-0.1-0.1-0.1-0.1c-0.2-0.2-0.4-0.4-0.6-0.7c-0.2-0.3-0.5-0.3-0.8-0.2c-0.3,0.2-0.3,0.5-0.2,0.8l0,0
			c0.9,1.5,2.4,2.5,4.1,2.7h0.4c0.3,0,0.5-0.2,0.5-0.5c0-0.3-0.2-0.5-0.5-0.5h-0.4c-0.1,0,0.1,0,0,0h-0.1h-0.2l-0.6-0.2l-0.1-0.1
			c0,0-0.2-0.1-0.1,0L59,57.4c-0.2-0.1-0.4-0.3-0.6-0.4L58.3,57l-0.1-0.1c-0.1-0.1-0.2-0.2-0.3-0.3c-0.2-0.2-0.4-0.5-0.5-0.7
			l-0.9,0.6c1,1.4,2.5,2.2,4.2,2.3h0.4c0.3,0,0.5-0.2,0.5-0.5c0,0,0,0,0,0c0-0.3-0.2-0.5-0.5-0.5l0,0L61,57.3z"></path>
		<path d="M80.9,59.9c1.4,0.5,2.6,1.5,3.4,2.8c-0.9-1.2-2.2-2.1-3.6-2.3"></path>
		<path d="M80.8,60.4h0.1H81H81c-0.2-0.1-0.1,0,0,0c0.3,0.1,0.6,0.3,0.9,0.4c0.2,0.1,0.4,0.2,0.5,0.4l0,0l0.1,0.1l0.1,0.1l0.3,0.2
			c0.2,0.2,0.4,0.4,0.5,0.6c0,0,0.1,0.2,0.1,0.1l0.1,0.2c0.1,0.1,0.2,0.3,0.2,0.4l0.9-0.4c-0.9-1.3-2.2-2.2-3.6-2.5
			c-0.1,0-0.3-0.1-0.4-0.1c-0.3,0-0.5,0.2-0.5,0.5c0,0,0,0,0,0c0,0.3,0.3,0.5,0.5,0.5c-0.3,0-0.1,0,0,0H81l0.4,0.1l0.2,0.1h0.1l0,0
			c0.4,0.2,0.8,0.4,1.1,0.7l0,0l0.1,0.1c0.1,0,0.1,0.1,0.2,0.1l0.3,0.3c0.2,0.2,0.4,0.4,0.5,0.6c0.2,0.2,0.6,0.1,0.8-0.1
			c0.1-0.1,0.1-0.2,0.1-0.4c-0.6-1-1.4-1.8-2.4-2.4c-0.4-0.3-0.9-0.5-1.4-0.7c-0.3,0-0.6,0.2-0.6,0.5C80.4,60.1,80.5,60.3,80.8,60.4
			L80.8,60.4z"></path>
		<path d="M80.5,59c0,0,1.8-1,3.1-0.2c-0.9-0.6-2.1-0.7-3.1-0.1"></path>
		<path d="M80.8,59.5l0.3-0.1h0.1l0,0c0,0,0,0-0.1,0c0.1,0,0.1,0,0.2-0.1l0.4-0.1l0.4-0.1h0.4c0.1,0,0.2,0,0.3,0c-0.1,0,0,0,0,0h0.1
			H83H83h0.1l0.1,0.1c0.2,0.1,0.5,0.1,0.7-0.1c0.2-0.2,0.2-0.5,0-0.7c-0.4-0.3-0.8-0.5-1.3-0.6c-0.4-0.1-0.8-0.1-1.2,0
			c-0.4,0.1-0.8,0.2-1.2,0.5c-0.3,0.2-0.3,0.5-0.2,0.8c0.2,0.3,0.5,0.3,0.8,0.2l0,0c0.1-0.1,0.2-0.1,0.3-0.1h0.1l0,0h0.2
			c0.1,0,0.3-0.1,0.4-0.1c0,0,0.2-0.1,0.2,0h0.5c0,0,0.2,0,0,0h0.2h0.1c0,0,0.1,0.1,0.1,0h0.1l0.1,0.1l0.1,0.1h0.1l0,0l0.7-0.9
			c-1.2-0.6-2.6-0.5-3.6,0.2c-0.3,0.2-0.4,0.5-0.2,0.7c0.2,0.3,0.5,0.4,0.7,0.2l0,0L80.8,59.5z"></path>
		<path d="M79.7,57.7c1.1,0,2.2-0.3,3.1-0.9c0.8-0.7,1.4-1.5,2-2.4l-0.9-0.5c-0.4,0.6-0.8,1.2-1.2,1.7c-0.2,0.2-0.4,0.4-0.6,0.6
			c0,0-0.2,0.1-0.1,0.1l-0.1,0.1l-0.3,0.2l-0.3,0.1c0,0-0.1,0,0,0h-0.1l-0.5,0.1c0,0-0.3,0-0.1,0h-0.2h-0.5l0.5,0.4l-0.1-0.3
			c-0.1-0.3-0.4-0.5-0.7-0.4c-0.3,0.1-0.5,0.4-0.4,0.7l0.1,0.3c0.1,0.2,0.3,0.4,0.5,0.4c0.8,0,1.6-0.2,2.3-0.6c1.1-0.8,2-1.8,2.6-3
			c0.1-0.3,0.1-0.6-0.2-0.8c-0.3-0.1-0.6,0-0.7,0.2l-0.4,0.6l-0.2,0.3L83,54.9c-0.1,0.1,0,0,0,0c-0.1,0.2-0.3,0.3-0.4,0.5l-0.2,0.2
			l-0.1,0.1l-0.1,0.1c0.1,0,0,0-0.1,0.1L82,55.9L81.8,56l-0.1,0.1h-0.1l0,0c-0.1,0-0.2,0.1-0.3,0.1c-0.5,0.1-1,0.2-1.5,0.2
			c-0.4,0-0.7,0.3-0.7,0.6S79.3,57.7,79.7,57.7z"></path>
		<path d="M79.7,57.1c2.7,0,3.3-1.1,4.6-3c-1.9,3.2-3.1,3.2-4.5,3.3L79.7,57.1z"></path>
		<path d="M80.9,56.3c-0.4-1.5-0.5-3-0.2-4.6c1.4-7.2,0-14.6-3.9-20.7c0,3.1-1.1,6.2-3,8.7c-1.1,1.9-1.8,3.9-2.2,6
			c-1.7-0.3-3.6-0.2-5.2,0.5c-1.3-3.9-3.6-6.4-9-8.5c2.2,2.2,0.4,5.1,0.2,7.2s-0.1,3.4,2.3,7.4c0.7,1.2,0.7,2.7,0.2,4
			c-1.4,2.4-0.3,7.5,6.9,9.1c-4.4,3.6-8,14-8.2,18.8c-2.9-0.4-3.6,9.6-3.6,9.6c-1,8.6,1.9,18.8,9.4,15.5c-0.1,0.5,0.4,1.8,3.7,1.2
			c2.8-0.7,1.7-2.1,1.7-2.1s1.4-0.4,1.9-0.2c-0.2,0.2-0.2,0.9,0.9,1c3.7,0.4,3.8-0.4,4-1s0.6-1-0.1-1.3c3.6-4.4,3.9-9.9,0.7-14.4
			c0.8-5.7,1-11.5,0.7-17.3c-0.4-3.4-4-7.9-3.6-9.7C83.6,62.1,81,57.7,80.9,56.3z M65.7,57.1c-1.5,0.1-2.8-1.1-2.9-2.6
			c-0.1-1.5,1.1-2.8,2.6-2.9c1.5-0.1,2.8,1.1,2.9,2.6c0,0,0,0.1,0,0.1C68.4,55.8,67.2,57,65.7,57.1L65.7,57.1z M72.2,53.7
			c0.1-1.5,1.3-2.6,2.8-2.5c1.5,0.1,2.6,1.3,2.5,2.8c-0.1,1.4-1.2,2.5-2.6,2.5C73.3,56.5,72.1,55.2,72.2,53.7
			C72.2,53.7,72.2,53.7,72.2,53.7L72.2,53.7z"></path>
	</g>
	<path d="M61.6,111.9c-7.4,4.5-10.7,5.9-18.8,3c-6.9-2.4-6.9,1.9-4.3,8c4.3,10.1-10.4,14-16.5,2.9c-1.2,0.4-1.9,1.2-2.9,3.2
		c-0.1-3.9,0.7-7.7,2.4-11.1c1.7,2.3,4.2,4,7,4.8c-2.3,0.2-4,0.8-4.5,1.9c3.8,8,15.4,7.1,8.2-4.9c-3.2-5.3-0.4-11.7,7.3-11.3
		c5.2,0.3,7.4,3.5,11.6-0.2l19.1,2.4"></path>
</g>
</svg><style>@media (prefers-color-scheme: light) { :root { filter: contrast(1) brightness(1); } }
</style></svg>