<?xml version="1.0" standalone="no"?>
<!DOCTYPE svg PUBLIC "-//W3C//DTD SVG 20010904//EN"
 "http://www.w3.org/TR/2001/REC-SVG-20010904/DTD/svg10.dtd">
<svg version="1.0" xmlns="http://www.w3.org/2000/svg"
 width="700.000000pt" height="700.000000pt" viewBox="0 0 700.000000 700.000000"
 preserveAspectRatio="xMidYMid meet">
<metadata>
Created by potrace 1.14, written by Peter Selinger 2001-2017
</metadata>
<g transform="translate(0.000000,700.000000) scale(0.100000,-0.100000)"
fill="#000000" stroke="none">
<path d="M2389 6958 c-14 -247 -166 -596 -367 -838 -47 -56 -178 -189 -245
-248 -59 -52 -243 -173 -334 -220 -145 -75 -372 -145 -496 -154 -43 -2 -51
-18 -9 -19 15 0 34 -2 42 -4 8 -1 33 -6 55 -9 108 -17 270 -73 397 -137 71
-36 193 -107 223 -131 6 -5 38 -29 73 -55 34 -26 62 -52 62 -58 0 -5 -9 -25
-21 -44 -130 -214 -279 -600 -315 -821 -2 -14 -8 -45 -14 -70 -15 -74 -17 -91
-40 -290 -8 -75 -5 -474 5 -540 2 -19 7 -55 10 -80 3 -25 8 -52 10 -60 2 -8 6
-33 9 -55 6 -53 30 -163 56 -261 99 -370 301 -757 546 -1045 137 -162 377
-365 558 -475 98 -59 97 -62 -7 -109 -70 -32 -148 -32 -252 1 -335 106 -573
50 -674 -159 -50 -103 -38 -261 29 -372 86 -145 123 -250 124 -351 1 -61 -3
-76 -27 -112 -37 -57 -77 -76 -157 -75 -121 0 -258 90 -337 220 -30 49 -31 52
-15 70 23 25 61 48 97 58 17 5 33 9 38 10 4 2 24 3 45 4 35 2 32 4 -68 53 -85
42 -119 66 -181 128 l-77 75 -15 -30 c-43 -88 -72 -185 -91 -300 -13 -78 -26
-245 -19 -245 2 0 12 19 24 41 23 47 93 119 114 119 8 0 30 -24 49 -52 88
-131 228 -240 351 -273 17 -5 37 -10 45 -12 8 -3 48 -6 89 -7 261 -12 424 158
381 395 -6 34 -15 69 -20 78 -45 82 -92 251 -93 331 -2 154 97 189 316 114
164 -56 226 -68 362 -68 109 -1 142 3 205 22 74 23 253 108 332 158 l41 26
131 -21 c175 -29 198 -31 361 -31 165 0 225 5 360 30 153 29 154 29 260 62
587 180 1100 633 1395 1233 149 302 218 534 274 917 10 69 19 223 19 348 1
551 -158 1094 -451 1540 -235 357 -570 656 -937 835 -115 56 -325 135 -395
149 -14 3 -59 12 -100 21 -41 9 -88 18 -105 20 -16 3 -55 8 -85 12 -72 10
-385 10 -475 0 -175 -21 -368 -71 -551 -145 l-52 -21 -18 22 c-112 130 -248
322 -260 367 0 3 -19 43 -41 90 -23 47 -46 103 -53 125 -7 22 -16 47 -20 56
-12 23 -49 197 -52 242 -2 43 -17 61 -19 25z m1441 -1042 c169 -25 371 -118
519 -240 343 -283 613 -795 721 -1371 6 -33 13 -69 15 -80 3 -11 7 -37 9 -57
3 -21 8 -53 11 -70 31 -190 37 -671 10 -863 -2 -16 -6 -52 -9 -80 -12 -104
-38 -245 -72 -382 -157 -642 -487 -1139 -895 -1348 l-89 -46 40 62 c43 66 75
144 92 222 10 47 7 208 -5 252 -13 49 -39 112 -67 161 -29 49 -30 57 -24 121
3 37 8 77 10 87 12 63 19 256 18 506 0 327 7 294 -117 550 -36 74 -68 151 -71
171 l-5 36 65 28 c109 46 207 117 253 183 12 17 28 32 35 32 24 0 74 -31 115
-70 44 -43 51 -46 68 -29 9 9 8 19 -2 39 -19 36 -101 109 -145 128 l-35 15 30
9 c17 4 46 6 65 3 19 -3 41 -1 48 3 34 23 -35 70 -101 68 -20 -1 -37 0 -37 1
0 1 13 9 30 18 65 34 159 145 152 182 -7 43 -31 34 -79 -32 -31 -42 -60 -69
-83 -79 -34 -14 -35 -13 -43 13 -11 34 -13 185 -4 236 24 134 30 372 12 480
-15 89 -38 185 -67 270 -30 92 -105 252 -137 294 l-18 23 -1 -47 c-5 -113 -65
-277 -145 -394 -32 -46 -89 -174 -101 -226 -4 -16 -11 -46 -16 -65 l-9 -35
-86 2 c-51 1 -105 -4 -133 -13 -57 -17 -62 -17 -62 -3 0 7 -16 45 -35 85 -62
128 -185 239 -349 313 -38 17 -70 31 -72 31 -1 0 8 -19 21 -42 20 -36 23 -54
20 -108 -3 -70 -9 -104 -26 -147 -6 -16 -13 -63 -16 -106 -4 -64 -1 -90 17
-145 19 -57 85 -194 110 -227 18 -24 26 -102 17 -155 -8 -44 -30 -90 -43 -90
-25 0 -70 28 -96 58 -13 15 -31 31 -40 34 -24 10 -40 -15 -29 -44 12 -32 84
-96 133 -118 l39 -17 -48 -5 c-94 -9 -213 -90 -192 -129 12 -23 42 -25 59 -4
19 22 114 66 146 67 69 1 70 -6 9 -74 -46 -51 -54 -75 -33 -96 20 -20 37 -14
53 18 8 16 26 37 40 46 23 15 25 14 58 -19 56 -55 124 -96 206 -123 42 -15 77
-27 79 -29 2 -2 -15 -22 -38 -46 -159 -169 -330 -561 -371 -851 -8 -56 -17
-88 -25 -88 -26 0 -82 -67 -102 -122 -25 -68 -58 -224 -68 -323 -3 -38 -8 -81
-10 -95 -6 -44 -5 -254 2 -299 6 -43 6 -43 -13 -25 -97 96 -239 307 -321 479
-62 129 -72 152 -111 258 -71 191 -121 384 -155 602 -15 92 -20 130 -33 245
-10 86 -10 568 0 650 4 36 10 88 13 115 3 28 12 88 20 135 7 47 14 88 14 93 0
19 18 4 23 -20 4 -16 14 -62 23 -103 17 -76 21 -106 23 -149 2 -38 11 -18 17
35 11 103 60 283 102 375 11 24 27 62 36 83 9 22 40 78 68 125 211 353 540
633 909 775 104 39 299 85 337 78 6 -2 12 2 12 8 0 5 -12 11 -27 11 -143 7
-384 90 -567 195 -122 70 -121 64 -19 116 118 61 207 89 323 104 25 4 46 8 48
9 5 5 153 -2 202 -9z m178 -1630 c46 -24 63 -51 68 -107 8 -89 -44 -150 -129
-151 -139 -3 -196 182 -78 255 32 20 103 22 139 3z m-481 -26 c59 -36 87 -124
57 -182 -22 -43 -63 -78 -94 -80 -14 -1 -34 -2 -45 -3 -48 -3 -119 51 -131
100 -11 42 3 105 28 132 49 53 129 68 185 33z"/>
</g>
</svg>
